<svg width="79" height="100" viewBox="0 0 79 100" fill="none" xmlns="http://www.w3.org/2000/svg">
<g filter="url(#filter0_d)">
<path d="M71.9779 42.3819C70.0515 40.9906 67.4828 41.0976 65.7704 42.703L61.5965 46.4489L61.3824 46.2348C58.4927 43.7733 54.2117 43.9873 51.5361 46.77L39.7633 59.613C38.6931 59.2919 37.8369 58.6497 37.4088 57.5795L37.6228 57.4725L42.653 52.7634C44.9005 51.372 45.6497 48.4824 44.2584 46.2348C43.0811 44.3084 40.7266 43.4522 38.5861 44.2013C38.479 44.2013 38.479 44.2014 38.372 44.3084L24.9939 51.4791C23.6025 51.9072 15.0405 54.7968 9.58226 65.6064L4.12398 74.7035C3.8029 75.4527 4.12398 76.2019 4.87315 76.5229C5.40828 76.737 6.15745 76.63 6.47853 76.0948L12.0438 66.8907C17.2881 56.5092 25.7431 54.0477 25.9571 54.0477C26.0641 54.0477 26.1712 53.9406 26.2782 53.9406L39.6563 46.6629C40.7266 46.3419 41.7968 46.877 42.1179 47.9472C42.439 48.8034 42.0109 49.8737 41.1547 50.3018C41.0476 50.4088 40.9406 50.4088 40.8336 50.5158L35.8034 55.2249C34.7332 55.8671 34.3051 57.1514 34.7332 58.3287C35.5894 60.5762 37.7299 62.1816 40.0844 62.3956H40.1914H40.4055C41.0476 62.3956 41.7968 62.3956 42.439 62.1816L50.1448 59.934C50.3588 59.827 50.4659 59.827 50.6799 59.613L67.5899 44.7365C68.5531 43.8803 69.9444 43.9873 70.6936 44.9505C71.4428 45.8067 71.4428 47.091 70.6936 47.9472L57.9576 61.8605L43.1881 73.2052C42.76 73.5262 42.2249 73.7403 41.6898 73.7403H28.0976C25.636 73.7403 23.3885 75.1316 22.3182 77.2721L15.7897 89.473C15.4686 90.1151 15.6827 90.9713 16.3248 91.3994C16.967 91.8275 17.8232 91.5065 18.2513 90.8643L24.7798 78.5564C25.422 77.2721 26.7063 76.5229 28.2046 76.5229H41.7968C42.9741 76.5229 44.1514 76.0948 45.0076 75.4527L59.67 64.001C59.777 63.894 59.9911 63.7869 60.0981 63.5729L72.7271 49.7667C74.5465 47.7332 74.4395 44.6295 72.406 42.703C72.299 42.703 72.0849 42.596 71.9779 42.3819ZM49.0745 57.4725L44.1514 58.8638L53.4626 48.6964C55.0679 46.984 57.6365 46.877 59.3489 48.3753L49.0745 57.4725Z" fill="#E5C289"/>
<path d="M29.4889 35.7464C30.0241 36.1745 30.7732 36.1745 31.3084 35.7464C31.7365 35.4253 33.2348 34.141 34.9472 32.3216C37.3018 34.5691 39.3352 36.3885 39.3352 36.3885C39.5493 36.6026 39.8704 36.7096 40.2985 36.7096C40.6195 36.7096 40.9406 36.6026 41.1547 36.3885C41.9038 35.7464 58.4927 21.6191 58.4927 11.7728C58.4927 5.35126 53.2485 0 46.72 0C44.4725 0 42.3319 0.642151 40.4055 1.81943C38.479 0.642151 36.2315 0 33.984 0C28.4187 0.321075 23.7096 4.281 22.6393 9.84631C19.3215 11.2376 17.181 14.4484 17.181 18.0872C17.074 24.9368 28.3117 34.6761 29.4889 35.7464ZM33.984 2.78265C36.0175 2.78265 37.9439 3.4248 39.5493 4.70911C40.0844 5.13721 40.7266 5.13721 41.2617 4.70911C42.8671 3.4248 44.7935 2.78265 46.827 2.78265C51.8572 2.78265 55.9241 6.84961 55.9241 11.8798C55.8171 18.5153 45.4357 29.2179 40.5125 33.6059C39.6563 32.8567 38.479 31.6794 37.0877 30.3951C40.4055 26.7563 43.9373 21.9401 43.9373 17.9802C43.9373 13.0571 39.9774 9.20416 35.1613 9.09713C33.5559 9.09713 32.0575 9.52523 30.6662 10.3814C29.2749 9.52523 27.7765 9.09713 26.1712 9.09713H25.8501C26.8133 5.45828 30.1311 2.9967 33.984 2.78265ZM25.9571 11.8798C27.2414 11.8798 28.6327 12.3079 29.596 13.1641C30.1311 13.5922 30.7732 13.5922 31.3084 13.1641C32.3786 12.3079 33.6629 11.8798 34.9472 11.8798C38.265 11.8798 41.0476 14.5554 41.0476 17.9802C41.0476 21.191 37.4088 25.7931 33.984 29.4319C32.6997 30.8232 31.4154 32.0005 30.4522 32.8567C26.8133 29.646 19.8567 22.4753 19.8567 17.9802C19.8567 14.6624 22.5323 11.9868 25.9571 11.8798C25.8501 11.8798 25.9571 11.8798 25.9571 11.8798Z" fill="#E5C289"/>
</g>
<defs>
<filter id="filter0_d" x="0" y="0" width="78.0158" height="99.5944" filterUnits="userSpaceOnUse" color-interpolation-filters="sRGB">
<feFlood flood-opacity="0" result="BackgroundImageFix"/>
<feColorMatrix in="SourceAlpha" type="matrix" values="0 0 0 0 0 0 0 0 0 0 0 0 0 0 0 0 0 0 127 0" result="hardAlpha"/>
<feOffset dy="4"/>
<feGaussianBlur stdDeviation="2"/>
<feComposite in2="hardAlpha" operator="out"/>
<feColorMatrix type="matrix" values="0 0 0 0 0 0 0 0 0 0 0 0 0 0 0 0 0 0 0.25 0"/>
<feBlend mode="normal" in2="BackgroundImageFix" result="effect1_dropShadow"/>
<feBlend mode="normal" in="SourceGraphic" in2="effect1_dropShadow" result="shape"/>
</filter>
</defs>
</svg>
